HIERARCHY
ROOT Hips
{
	OFFSET 0.00000 0.00000 0.00000
	CHANNELS 6 Xposition Yposition Zposition Zrotation Yrotation Xrotation 
	JOINT LHipJoint
	{
		OFFSET 0 0 0
		CHANNELS 3 Zrotation Yrotation Xrotation
		JOINT LeftHip
		{
			OFFSET 1.40252 -1.71424 0.59123
			CHANNELS 3 Zrotation Yrotation Xrotation
			JOINT LeftKnee
			{
				OFFSET 2.50071 -6.87065 0.00000
				CHANNELS 3 Zrotation Yrotation Xrotation
				JOINT LeftAnkle
				{
					OFFSET 2.50834 -6.89162 0.00000
					CHANNELS 3 Zrotation Yrotation Xrotation
					JOINT LeftToe
					{
						OFFSET 0.21528 -0.59149 1.64448
						CHANNELS 3 Zrotation Yrotation Xrotation
						End Site
						{
							OFFSET 0.00000 -0.00000 0.87921
						}
					}
				}
			}
		}
	}
	JOINT RHipJoint
	{
		OFFSET 0 0 0
		CHANNELS 3 Zrotation Yrotation Xrotation
		JOINT RightHip
		{
			OFFSET -1.53651 -1.71424 0.59123
			CHANNELS 3 Zrotation Yrotation Xrotation
			JOINT RightKnee
			{
				OFFSET -2.45783 -6.75285 0.00000
				CHANNELS 3 Zrotation Yrotation Xrotation
				JOINT RightAnkle
				{
					OFFSET -2.51921 -6.92147 0.00000
					CHANNELS 3 Zrotation Yrotation Xrotation
					JOINT RightToe
					{
						OFFSET -0.21777 -0.59831 1.59676
						CHANNELS 3 Zrotation Yrotation Xrotation
						End Site
						{
							OFFSET -0.00000 -0.00000 0.85779
						}
					}
				}
			}
		}
	}
	JOINT lowerback
	{
		OFFSET 0 0 0
		CHANNELS 3 Zrotation Yrotation Xrotation
		JOINT Chest
		{
			OFFSET 0.02212 2.07622 0.03776
			CHANNELS 3 Zrotation Yrotation Xrotation
			JOINT Chest2
			{
				OFFSET -0.00949 2.08009 -0.00123
				CHANNELS 3 Zrotation Yrotation Xrotation
				JOINT lowerneck
				{
					OFFSET 0 0 0
					CHANNELS 3 Zrotation Yrotation Xrotation
					JOINT Neck
					{
						OFFSET 0.00288 1.67184 0.11155
						CHANNELS 3 Zrotation Yrotation Xrotation
						JOINT Head
						{
							OFFSET -0.02412 1.66997 -0.22040
							CHANNELS 3 Zrotation Yrotation Xrotation
							End Site
							{
								OFFSET -0.01026 1.69043 -0.08683
							}
						}
					}
				}
				JOINT LeftCollar
				{
					OFFSET 0 0 0
					CHANNELS 3 Zrotation Yrotation Xrotation
					JOINT LeftShoulder
					{
						OFFSET 3.97941 0.74048 0.81462
CHANNELS 3 Zrotation Xrotation Yrotation
						JOINT LeftElbow
						{
OFFSET 0 -5.018340 -0.000000
CHANNELS 3 Zrotation Xrotation Yrotation
							JOINT LeftWrist
							{
OFFSET 0 -3.486900 0.000000
CHANNELS 3 Zrotation Xrotation Yrotation
								JOINT lhand
								{
									OFFSET 0 0 0
CHANNELS 3 Zrotation Xrotation Yrotation
									JOINT LFingers
									{
OFFSET 0 -0.767990 0.000000
CHANNELS 3 Zrotation Xrotation Yrotation
										End Site
										{
OFFSET 0 -0.619170 0.000000
										}
									}
								}
								JOINT LThumb
								{
OFFSET 0 0.000000 0.000000
CHANNELS 3 Zrotation Xrotation Yrotation
									End Site
									{
OFFSET 0 -0.628630 0.628630
									}
								}
							}
						}
					}
				}
				JOINT RightCollar
				{
					OFFSET 0 0 0
					CHANNELS 3 Zrotation Yrotation Xrotation
					JOINT RightShoulder
					{
						OFFSET -3.88702 1.02123 0.44091
CHANNELS 3 Zrotation Xrotation Yrotation
						JOINT RightElbow
						{
OFFSET 0 -4.701640 0.000000
CHANNELS 3 Zrotation Xrotation Yrotation
							JOINT RightWrist
							{
OFFSET 0 -3.499110 0.000000
CHANNELS 3 Zrotation Xrotation Yrotation
								JOINT rhand
								{
									OFFSET 0 0 0
CHANNELS 3 Zrotation Xrotation Yrotation
									JOINT RFingers
									{
OFFSET 0 -0.739330 0.000000
CHANNELS 3 Zrotation Xrotation Yrotation
										End Site
										{
OFFSET 0 -0.596070 0.000000
										}
									}
								}
								JOINT RThumb
								{
OFFSET 0 0.000000 0.000000
CHANNELS 3 Zrotation Xrotation Yrotation
									End Site
									{
OFFSET 0 -0.605170 0.605170
									}
								}
							}
						}
					}
				}
			}
		}
	}
}
MOTION
Frames: 6
Frame Time: 0.008333333333333333
-13.385600 17.505200 1.449000 171.325000 85.573600 -179.182000 0.000000 0.000000 0.000000 -13.428800 -10.592200 -9.570400 0.784400 5.654000 15.783700 1.580200 -1.552400 -23.327700 0.253300 3.238400 8.943200 0.000000 0.000000 0.000000 18.134300 5.047100 -5.916600 -0.133900 -2.358900 6.498600 -0.061800 -13.552700 -19.971800 -0.087200 1.904600 -5.242200 2.527200 1.025100 -6.961500 -0.531800 1.171700 1.270900 -1.839000 0.665400 5.293400 -0.979700 -1.629600 -3.513400 2.065600 -2.227700 6.815700 0.755400 -1.047400 2.816300 0.000000 -0.000000 0.000000 43.178400 19.466900 -107.814600 85.822600 -59.934000 56.383000 40.374200 13.617900 -24.755300 0.000000 0.000000 0.000000 -7.125000 0.000000 0.000000 13.261200 60.677100 -5.120000 0.000000 -0.000000 0.000000 -36.704000 31.299600 97.273700 -84.813400 -59.898100 -55.509800 93.572100 111.740000 45.233700 0.000000 0.000000 0.000000 7.125000 0.000000 -0.000000 -25.510400 -60.499600 -35.088200
-13.440837 17.527730 1.191283 172.461349 85.869552 -177.926354 0.000000 0.000000 0.000000 -14.266891 -10.130256 -8.444587 0.501790 4.540970 12.603818 1.133111 0.368733 -20.261258 0.045331 -1.370493 -3.768802 0.000000 0.000000 0.000000 17.320628 6.633937 -6.241413 -0.172144 -2.672384 7.367931 0.043641 -14.794183 -20.533435 -0.080147 1.824438 -5.020773 2.463995 1.103610 -6.707130 -0.576853 1.294298 0.934690 -1.843179 0.716045 4.803509 0.268645 -1.846743 -3.810071 -0.102381 -2.445243 7.193529 -0.169562 -1.194243 2.949758 0.000000 0.000000 0.000000 43.214908 19.187287 -108.127179 85.418779 -59.920561 56.033608 40.480808 13.523487 -24.350251 0.000000 0.000000 0.000000 -7.125000 0.000000 0.000000 13.393621 60.232842 -5.030289 0.000000 0.000000 0.000000 -36.530223 31.978273 97.198454 -82.544798 -59.788832 -53.548134 86.248157 -64.638426 -37.879157 0.000000 0.000000 0.000000 7.125000 0.000000 0.000000 -27.545497 -50.700201 -39.815402
-13.463177 17.539596 0.919231 171.263776 86.563810 -179.098958 0.000000 0.000000 0.000000 -15.397832 -7.800558 -8.969753 0.437799 4.245848 11.769434 0.922201 0.417470 -18.306148 0.296601 -3.500504 -9.675595 0.000000 0.000000 0.000000 16.239623 7.342366 -6.923809 -0.236616 -3.130010 8.640904 -0.051249 -14.647264 -21.345530 -0.014501 0.777474 -2.136669 2.124602 0.801990 -6.577298 -0.380873 0.911065 1.203717 -1.490454 0.518162 4.981364 0.501875 -1.581107 -6.276874 -1.568253 -2.003896 7.816240 -0.705859 -1.032936 3.623233 0.000000 0.000000 0.000000 42.280753 19.298817 -106.545771 85.671408 -59.929034 56.252196 39.310335 12.212277 -24.240369 0.000000 0.000000 0.000000 -7.125000 0.000000 0.000000 11.874242 59.783586 -4.321960 0.000000 0.000000 0.000000 -37.056171 30.804712 97.759633 -80.021864 -59.620143 -51.369752 79.732143 -73.994887 -30.548698 0.000000 0.000000 0.000000 7.125000 0.000000 0.000000 -26.905641 -38.227854 -39.772534
-13.517957 17.539336 0.643425 169.618124 87.309444 -180.399260 0.000000 0.000000 0.000000 -16.372798 -6.806178 -9.284614 0.382169 3.969695 10.991453 0.799631 0.062155 -16.923153 0.321941 -3.634898 -10.053070 0.000000 0.000000 0.000000 14.960340 7.601775 -8.727541 -0.349972 -3.799985 10.514766 -0.190927 -13.981325 -21.894210 -0.001024 0.199834 -0.549133 2.613861 1.103441 -6.467103 -0.863332 1.300520 1.015472 -2.227644 0.727755 4.763062 0.769188 -1.740290 -6.662279 -1.512657 -2.258317 7.595398 -0.750382 -1.151955 3.615935 0.000000 0.000000 0.000000 43.260900 18.798992 -106.978068 85.955145 -59.938085 56.497746 38.902624 12.057506 -24.025762 0.000000 0.000000 0.000000 -7.125000 0.000000 0.000000 11.359189 59.423880 -4.033425 0.000000 0.000000 0.000000 -36.071904 31.512756 97.487344 -77.627415 -59.413567 -49.306188 74.825839 -85.228236 -22.887152 0.000000 0.000000 0.000000 7.125000 0.000000 0.000000 -26.124359 -23.639165 -37.281749
-13.581262 17.533532 0.378593 166.826514 88.161436 -182.810312 0.000000 0.000000 0.000000 -17.248737 -5.687156 -9.596497 0.305217 3.551721 9.818944 0.711592 -0.547807 -15.764574 0.096434 -1.991306 -5.481960 0.000000 0.000000 0.000000 13.729444 7.508137 -11.156680 -0.536591 -4.691010 13.029729 -0.380363 -12.901964 -22.440100 -0.003933 -0.397027 1.091017 1.958111 0.926273 -6.608351 -0.508416 1.097066 1.127778 -1.509169 0.606225 4.926844 0.480621 -1.436550 -7.046605 -1.768254 -1.816019 6.831119 -0.757615 -0.955690 3.430896 0.000000 0.000000 0.000000 42.519759 18.728381 -106.577972 85.891123 -59.936104 56.442375 38.817840 12.140518 -24.069762 0.000000 0.000000 0.000000 -7.125000 0.000000 0.000000 11.250537 59.452346 -4.002052 0.000000 0.000000 0.000000 -36.963215 30.742376 98.549023 -76.966597 -59.348321 -48.737494 74.996364 -86.496197 -21.563348 0.000000 0.000000 0.000000 7.125000 0.000000 0.000000 -26.581124 -22.118684 -37.766846
-13.662813 17.518436 0.131119 158.859154 88.984307 -190.356232 0.000000 0.000000 0.000000 -18.028831 -3.583389 -10.687656 0.264355 3.307482 9.135925 0.677062 -2.471788 -14.903043 0.058121 -1.553371 -4.272980 0.000000 0.000000 0.000000 12.545036 6.964376 -14.447292 -0.830137 -5.810009 16.234777 -0.504535 -11.838732 -22.441339 -0.042530 -1.310497 3.603961 1.820572 0.873586 -6.256379 -0.647272 1.051453 1.065302 -1.585948 0.579030 4.660433 0.636385 -1.328705 -7.223313 -1.795078 -1.697542 6.252705 -0.783527 -0.895470 3.264853 0.000000 0.000000 0.000000 43.043205 18.695451 -106.847065 86.477726 -59.952996 56.950157 38.567722 12.292521 -24.069126 0.000000 0.000000 0.000000 -7.125000 0.000000 0.000000 10.934441 59.384748 -3.870042 0.000000 0.000000 0.000000 -36.790903 30.472883 99.016982 -76.493078 -59.299266 -48.330173 76.729692 -82.515613 -22.843809 0.000000 0.000000 0.000000 7.125000 0.000000 0.000000 -27.420555 -26.293189 -39.899086
